<svg width="25" height="25" viewBox="0 0 25 25" fill="none" xmlns="http://www.w3.org/2000/svg">
<g clip-path="url(#clip0_37_1791)">
<path fill-rule="evenodd" clip-rule="evenodd" d="M18.75 25H6.25C4.59242 24.9999 3.00275 24.3414 1.83066 23.1693C0.658576 21.9972 7.25144e-05 20.4076 0 18.75L0 6.25C7.25144e-05 4.59242 0.658576 3.00275 1.83066 1.83066C3.00275 0.658576 4.59242 7.25144e-05 6.25 0L18.75 0C20.4076 0 21.9973 0.65848 23.1694 1.83058C24.3415 3.00269 25 4.5924 25 6.25V18.75C25 20.4076 24.3415 21.9973 23.1694 23.1694C21.9973 24.3415 20.4076 25 18.75 25Z" fill="#199BDF"/>
<path fill-rule="evenodd" clip-rule="evenodd" d="M11.7188 7.03125H18.75C19.6513 7.03119 20.5181 6.68502 21.1715 6.06422C21.8249 5.44342 22.2149 4.59541 22.261 3.69531C22.3072 2.79522 22.0059 1.91178 21.4193 1.22745C20.8328 0.543113 20.0059 0.110149 19.1094 0.0179687C18.9898 0.0113281 18.8715 0 18.75 0H6.25C4.59242 7.25144e-05 3.00275 0.658576 1.83066 1.83066C0.658576 3.00275 7.25144e-05 4.59242 0 6.25L0 18.75C7.25171e-05 15.642 1.23475 12.6613 3.43242 10.4637C5.6301 8.266 8.61077 7.03132 11.7188 7.03125Z" fill="#32B4FF"/>
<path fill-rule="evenodd" clip-rule="evenodd" d="M18.75 12.5C17.5139 12.5 16.3055 12.8666 15.2777 13.5533C14.2499 14.2401 13.4488 15.2162 12.9758 16.3582C12.5027 17.5003 12.3789 18.7569 12.6201 19.9693C12.8613 21.1817 13.4565 22.2953 14.3306 23.1694C15.2047 24.0435 16.3183 24.6388 17.5307 24.8799C18.7431 25.1211 19.9997 24.9973 21.1418 24.5242C22.2838 24.0512 23.2599 23.2501 23.9467 22.2223C24.6334 21.1945 25 19.9861 25 18.75V6.25C25 7.9076 24.3415 9.49732 23.1694 10.6694C21.9973 11.8415 20.4076 12.5 18.75 12.5Z" fill="#0082BE"/>
<g clip-path="url(#clip1_37_1791)">
<path d="M11.6177 16.7464C11.8934 16.7464 12.1416 16.967 12.1416 17.2703C12.1416 17.5461 11.921 17.7942 11.6177 17.7942C11.3419 17.7942 11.0938 17.5736 11.0938 17.2703C11.0938 16.967 11.3419 16.7464 11.6177 16.7464ZM19.7243 13.5479C19.4485 13.5479 19.2004 13.3273 19.2004 13.024C19.2004 12.7483 19.421 12.5001 19.7243 12.5001C20 12.5001 20.2482 12.7207 20.2482 13.024C20.2482 13.2997 20 13.5479 19.7243 13.5479ZM19.7243 11.4247C18.8419 11.4247 18.125 12.1417 18.125 13.024C18.125 13.1895 18.1526 13.3549 18.2077 13.5203L12.9412 16.3328C12.6379 15.8917 12.1416 15.6435 11.6177 15.6435C11.011 15.6435 10.4596 16.002 10.1838 16.5259L5.44119 14.0442C4.94486 13.7685 4.55883 12.9689 4.61398 12.1968C4.64155 11.8108 4.77942 11.5075 4.97244 11.3972C5.1103 11.3145 5.24817 11.342 5.44119 11.4247L5.46876 11.4523C6.73714 12.1141 10.8456 14.2648 11.011 14.3475C11.2868 14.4578 11.4246 14.513 11.8934 14.2924L20.386 9.88063C20.5239 9.82548 20.6618 9.71519 20.6618 9.52217C20.6618 9.27401 20.4136 9.16372 20.4136 9.16372C19.9173 8.94313 19.1728 8.58467 18.4559 8.25379C16.9118 7.53688 15.1471 6.70967 14.375 6.29607C13.7132 5.93762 13.1618 6.24092 13.0791 6.29607L12.886 6.37879C9.3842 8.1435 4.75185 10.4321 4.47611 10.5975C4.00736 10.8733 3.70405 11.4523 3.67648 12.1692C3.62133 13.2997 4.20038 14.4854 5.02758 14.899L10.046 17.4909C10.1563 18.263 10.8456 18.8696 11.6177 18.8696C12.5 18.8696 13.1893 18.1803 13.2169 17.2979L18.7316 14.32C19.0074 14.5406 19.3658 14.6509 19.7243 14.6509C20.6066 14.6509 21.3235 13.9339 21.3235 13.0516C21.3235 12.1417 20.6066 11.4247 19.7243 11.4247Z" fill="white"/>
</g>
</g>
<defs>
<clipPath id="clip0_37_1791">
<rect width="25" height="25" fill="white"/>
</clipPath>
<clipPath id="clip1_37_1791">
<rect width="17.6471" height="17.6471" fill="white" transform="translate(3.67651 3.67651)"/>
</clipPath>
</defs>
</svg>
