<svg width="34" height="34" viewBox="0 0 34 34" fill="none" xmlns="http://www.w3.org/2000/svg">
<g clip-path="url(#clip0_7_1512)">
<path fill-rule="evenodd" clip-rule="evenodd" d="M25.5 34H8.5C6.24569 33.9999 4.08374 33.1043 2.4897 31.5103C0.895663 29.9163 9.86196e-05 27.7543 0 25.5L0 8.5C9.86196e-05 6.24569 0.895663 4.08374 2.4897 2.4897C4.08374 0.895663 6.24569 9.86196e-05 8.5 0L25.5 0C27.7543 0 29.9163 0.895533 31.5104 2.48959C33.1045 4.08365 34 6.24566 34 8.5V25.5C34 27.7543 33.1045 29.9163 31.5104 31.5104C29.9163 33.1045 27.7543 34 25.5 34Z" fill="#199BDF"/>
<path fill-rule="evenodd" clip-rule="evenodd" d="M15.9375 9.5625H25.5C26.7257 9.56242 27.9046 9.09163 28.7932 8.24734C29.6818 7.40306 30.2123 6.24976 30.275 5.02563C30.3377 3.8015 29.928 2.60002 29.1303 1.66933C28.3327 0.738634 27.2081 0.149803 25.9887 0.0244375C25.8262 0.0154062 25.6652 0 25.5 0H8.5C6.24569 9.86196e-05 4.08374 0.895663 2.4897 2.4897C0.895663 4.08374 9.86196e-05 6.24569 0 8.5L0 25.5C9.86232e-05 21.2731 1.67926 17.2194 4.66809 14.2306C7.65693 11.2418 11.7106 9.5626 15.9375 9.5625Z" fill="#32B4FF"/>
<path fill-rule="evenodd" clip-rule="evenodd" d="M25.5 17C23.8189 17 22.1755 17.4985 20.7777 18.4325C19.3798 19.3665 18.2904 20.694 17.647 22.2472C17.0037 23.8004 16.8354 25.5094 17.1633 27.1583C17.4913 28.8071 18.3009 30.3217 19.4896 31.5104C20.6783 32.6992 22.1929 33.5087 23.8417 33.8367C25.4906 34.1646 27.1996 33.9963 28.7528 33.353C30.306 32.7096 31.6335 31.6202 32.5675 30.2223C33.5015 28.8245 34 27.1811 34 25.5V8.5C34 10.7543 33.1045 12.9163 31.5104 14.5104C29.9164 16.1045 27.7543 17 25.5 17Z" fill="#0082BE"/>
</g>
<defs>
<clipPath id="clip0_7_1512">
<rect width="34" height="34" fill="white"/>
</clipPath>
</defs>
</svg>
