<svg width="17" height="17" viewBox="0 0 17 17" fill="none" xmlns="http://www.w3.org/2000/svg">
  <path fill-rule="evenodd" clip-rule="evenodd" d="M5.57812 14.875L5.57812 4.25C5.57812 3.81012 5.22113 3.45312 4.78125 3.45312C4.34137 3.45312 3.98437 3.81012 3.98437 4.25L3.98437 14.875C3.98437 15.3149 4.34137 15.6719 4.78125 15.6719C5.22112 15.6719 5.57812 15.3149 5.57812 14.875Z" fill="white"/>
  <path fill-rule="evenodd" clip-rule="evenodd" d="M11.4219 2.125L11.4219 12.75C11.4219 13.1899 11.7789 13.5469 12.2187 13.5469C12.6586 13.5469 13.0156 13.1899 13.0156 12.75L13.0156 2.125C13.0156 1.68512 12.6586 1.32812 12.2188 1.32812C11.7789 1.32812 11.4219 1.68512 11.4219 2.125Z" fill="white"/>
  <path fill-rule="evenodd" clip-rule="evenodd" d="M6.8744 11.6556L4.78127 13.7477L2.68815 11.6556C2.3779 11.3443 1.87215 11.3443 1.5619 11.6556C1.25058 11.9659 1.25058 12.4716 1.5619 12.7819L4.21815 15.4381C4.52946 15.7494 5.03308 15.7494 5.3444 15.4381L8.00065 12.7819C8.31196 12.4716 8.31196 11.9659 8.00065 11.6556C7.6904 11.3443 7.18465 11.3443 6.8744 11.6556Z" fill="white"/>
  <path fill-rule="evenodd" clip-rule="evenodd" d="M10.1256 5.3446L12.2188 3.25254L14.3119 5.3446C14.6221 5.65591 15.1279 5.65591 15.4381 5.3446C15.7495 5.03435 15.7495 4.5286 15.4381 4.21835L12.7819 1.5621C12.4706 1.25079 11.967 1.25078 11.6556 1.5621L8.9994 4.21835C8.68808 4.5286 8.68808 5.03435 8.9994 5.3446C9.30965 5.65591 9.8154 5.65591 10.1256 5.3446Z" fill="white"/>
</svg>
