<svg width="25" height="25" viewBox="0 0 25 25" fill="none" xmlns="http://www.w3.org/2000/svg">
<g clip-path="url(#clip0_37_1785)">
<path fill-rule="evenodd" clip-rule="evenodd" d="M18.75 25H6.25C4.59242 24.9999 3.00275 24.3414 1.83066 23.1693C0.658576 21.9972 7.25144e-05 20.4076 0 18.75L0 6.25C7.25144e-05 4.59242 0.658576 3.00275 1.83066 1.83066C3.00275 0.658576 4.59242 7.25144e-05 6.25 0L18.75 0C20.4076 0 21.9973 0.65848 23.1694 1.83058C24.3415 3.00269 25 4.5924 25 6.25V18.75C25 20.4076 24.3415 21.9973 23.1694 23.1694C21.9973 24.3415 20.4076 25 18.75 25Z" fill="#199BDF"/>
<path fill-rule="evenodd" clip-rule="evenodd" d="M11.7188 7.03125H18.75C19.6513 7.03119 20.5181 6.68502 21.1715 6.06422C21.8249 5.44342 22.2149 4.59541 22.261 3.69531C22.3072 2.79522 22.0059 1.91178 21.4193 1.22745C20.8328 0.543113 20.0059 0.110149 19.1094 0.0179687C18.9898 0.0113281 18.8715 0 18.75 0H6.25C4.59242 7.25144e-05 3.00275 0.658576 1.83066 1.83066C0.658576 3.00275 7.25144e-05 4.59242 0 6.25L0 18.75C7.25171e-05 15.642 1.23475 12.6613 3.43242 10.4637C5.6301 8.266 8.61077 7.03132 11.7188 7.03125Z" fill="#32B4FF"/>
<path fill-rule="evenodd" clip-rule="evenodd" d="M18.75 12.5C17.5139 12.5 16.3055 12.8666 15.2777 13.5533C14.2499 14.2401 13.4488 15.2162 12.9758 16.3582C12.5027 17.5003 12.3789 18.7569 12.6201 19.9693C12.8613 21.1817 13.4565 22.2953 14.3306 23.1694C15.2047 24.0435 16.3183 24.6388 17.5307 24.8799C18.7431 25.1211 19.9997 24.9973 21.1418 24.5242C22.2838 24.0512 23.2599 23.2501 23.9467 22.2223C24.6334 21.1945 25 19.9861 25 18.75V6.25C25 7.9076 24.3415 9.49732 23.1694 10.6694C21.9973 11.8415 20.4076 12.5 18.75 12.5Z" fill="#0082BE"/>
<path fill-rule="evenodd" clip-rule="evenodd" d="M17.6094 6.65314C17.8014 6.57386 18.0111 6.54705 18.2168 6.57546C18.4226 6.60388 18.6172 6.68649 18.7806 6.81483C18.9439 6.94318 19.0702 7.11264 19.1465 7.30587C19.2228 7.4991 19.2464 7.70914 19.2148 7.91447C18.7596 10.875 17.925 16.3 17.4819 19.1797C17.4513 19.379 17.3697 19.567 17.2452 19.7255C17.1206 19.884 16.9573 20.0077 16.7709 20.0847C16.5846 20.1616 16.3815 20.1892 16.1814 20.1647C15.9813 20.1402 15.7909 20.0645 15.6286 19.9449C14.0613 18.7903 11.7115 17.059 10.5185 16.1797C10.4264 16.1119 10.3504 16.0246 10.2957 15.9242C10.2411 15.8237 10.2091 15.7125 10.2022 15.5983C10.1952 15.4842 10.2134 15.3699 10.2555 15.2635C10.2975 15.1572 10.3624 15.0614 10.4455 14.9828C11.5387 13.9504 13.716 11.8942 15.214 10.4793C15.2493 10.4458 15.2708 10.4003 15.2742 10.3517C15.2777 10.3032 15.2629 10.2551 15.2328 10.2168C15.2027 10.1786 15.1594 10.153 15.1113 10.1451C15.0633 10.1371 15.014 10.1474 14.9732 10.1738C13.0525 11.4266 10.1108 13.3449 8.6691 14.2852C8.39891 14.4614 8.09525 14.5799 7.77713 14.6334C7.45901 14.6868 7.13328 14.674 6.82035 14.5957C6.02648 14.3973 4.8814 14.111 3.86238 13.8563C3.70284 13.8164 3.55994 13.7272 3.45405 13.6014C3.34815 13.4756 3.28466 13.3196 3.27261 13.1556C3.26056 12.9916 3.30057 12.8279 3.38694 12.688C3.4733 12.5481 3.60163 12.4389 3.75363 12.3762C7.30097 10.911 14.2431 8.04377 17.6094 6.65314Z" fill="white"/>
</g>
<defs>
<clipPath id="clip0_37_1785">
<rect width="25" height="25" fill="white"/>
</clipPath>
</defs>
</svg>
