<svg width="25" height="25" viewBox="0 0 25 25" fill="none" xmlns="http://www.w3.org/2000/svg">
<g clip-path="url(#clip0_37_1779)">
<path fill-rule="evenodd" clip-rule="evenodd" d="M18.75 25H6.25C4.59242 24.9999 3.00275 24.3414 1.83066 23.1693C0.658576 21.9972 7.25144e-05 20.4076 0 18.75L0 6.25C7.25144e-05 4.59242 0.658576 3.00275 1.83066 1.83066C3.00275 0.658576 4.59242 7.25144e-05 6.25 0L18.75 0C20.4076 0 21.9973 0.65848 23.1694 1.83058C24.3415 3.00269 25 4.5924 25 6.25V18.75C25 20.4076 24.3415 21.9973 23.1694 23.1694C21.9973 24.3415 20.4076 25 18.75 25Z" fill="#0F9DFF"/>
<path fill-rule="evenodd" clip-rule="evenodd" d="M11.7188 7.03125H18.75C19.6513 7.03119 20.5181 6.68502 21.1715 6.06422C21.8249 5.44342 22.2149 4.59541 22.261 3.69531C22.3072 2.79522 22.0059 1.91178 21.4193 1.22745C20.8328 0.543113 20.0059 0.110149 19.1094 0.0179687C18.9898 0.0113281 18.8715 0 18.75 0H6.25C4.59242 7.25144e-05 3.00275 0.658576 1.83066 1.83066C0.658576 3.00275 7.25144e-05 4.59242 0 6.25L0 18.75C7.25171e-05 15.642 1.23475 12.6613 3.43242 10.4637C5.6301 8.266 8.61077 7.03132 11.7188 7.03125Z" fill="#00B7FF"/>
<path fill-rule="evenodd" clip-rule="evenodd" d="M18.75 12.5C17.5139 12.5 16.3055 12.8666 15.2777 13.5533C14.2499 14.2401 13.4488 15.2162 12.9758 16.3582C12.5027 17.5003 12.3789 18.7569 12.6201 19.9693C12.8613 21.1817 13.4565 22.2953 14.3306 23.1694C15.2047 24.0435 16.3183 24.6388 17.5307 24.8799C18.7431 25.1211 19.9997 24.9973 21.1418 24.5242C22.2838 24.0512 23.2599 23.2501 23.9467 22.2223C24.6334 21.1945 25 19.9861 25 18.75V6.25C25 7.9076 24.3415 9.49732 23.1694 10.6694C21.9973 11.8415 20.4076 12.5 18.75 12.5Z" fill="#1D83FF"/>
<path d="M9.60003 18.8499C15.5914 18.8499 18.9145 13.7624 18.7125 9.31867C19.1564 8.99792 19.5577 8.62199 19.9067 8.19992C19.9331 8.16727 19.9483 8.12693 19.9499 8.08494C19.9515 8.04295 19.9394 8.00157 19.9156 7.967C19.8917 7.93242 19.8572 7.90652 19.8174 7.89316C19.7775 7.8798 19.7345 7.8797 19.6946 7.89289C19.4311 7.97752 19.1626 8.04549 18.8907 8.0964C18.8691 8.10022 18.847 8.09668 18.8277 8.08637C18.8084 8.07605 18.7932 8.05955 18.7845 8.03953C18.7757 8.01951 18.7739 7.99712 18.7795 7.97598C18.785 7.95484 18.7975 7.93616 18.8149 7.92297C19.1649 7.64602 19.4535 7.2992 19.6621 6.90461C19.6802 6.86864 19.6865 6.82792 19.6801 6.78819C19.6737 6.74846 19.655 6.71174 19.6267 6.6832C19.5983 6.65466 19.5617 6.63576 19.522 6.62916C19.4823 6.62255 19.4416 6.62859 19.4055 6.6464C18.9086 6.88316 18.3839 7.05653 17.8438 7.16242C17.404 6.6936 16.8334 6.36781 16.2062 6.22736C15.5789 6.08691 14.9239 6.13828 14.3262 6.3748C13.7285 6.61132 13.2157 7.02207 12.8544 7.55372C12.493 8.08537 12.2999 8.71337 12.3 9.35617C12.3009 9.56047 12.3201 9.76429 12.3574 9.96515C12.3602 9.97976 12.3596 9.99481 12.3557 10.0092C12.3517 10.0235 12.3446 10.0367 12.3347 10.0479C12.3249 10.059 12.3127 10.0678 12.2989 10.0735C12.2852 10.0792 12.2703 10.0817 12.2555 10.0808C9.93621 9.93246 7.76179 8.90158 6.17893 7.19992C6.1332 7.14916 6.07487 7.11138 6.00985 7.09039C5.94484 7.0694 5.87543 7.06594 5.80865 7.08036C5.74186 7.09479 5.68007 7.12659 5.62952 7.17255C5.57896 7.21851 5.54144 7.277 5.52073 7.34211C5.30201 7.95073 5.27825 8.61236 5.45277 9.2351C5.62729 9.85785 5.99141 10.4108 6.49456 10.8171C6.51088 10.8302 6.52247 10.8482 6.52755 10.8685C6.53263 10.8888 6.53091 10.9101 6.52266 10.9294C6.51441 10.9486 6.50008 10.9645 6.48188 10.9748C6.46368 10.9851 6.44261 10.9891 6.4219 10.9862C6.23876 10.9613 6.05822 10.92 5.88245 10.8628C5.8183 10.8414 5.74964 10.8371 5.68334 10.8506C5.61705 10.864 5.55545 10.8946 5.50471 10.9394C5.45267 10.9831 5.41367 11.0403 5.39196 11.1047C5.37026 11.1692 5.3667 11.2383 5.38167 11.3046C6.06057 13.9187 7.89924 13.5855 7.89924 13.7835C7.89924 13.9175 7.53557 13.9175 7.04807 13.9187C6.98209 13.919 6.9173 13.9362 6.85991 13.9688C6.80252 14.0013 6.75446 14.0481 6.72034 14.1046C6.68622 14.1611 6.66719 14.2253 6.66507 14.2913C6.66295 14.3572 6.67781 14.4226 6.70823 14.4812C6.9648 14.9223 7.32212 15.2965 7.751 15.5731C8.17987 15.8497 8.66811 16.0208 9.17581 16.0726C9.19554 16.0741 9.21433 16.0816 9.22964 16.0942C9.24495 16.1067 9.25604 16.1236 9.26141 16.1427C9.26678 16.1617 9.26617 16.182 9.25966 16.2007C9.25316 16.2194 9.24106 16.2356 9.22503 16.2472C8.33822 16.8886 7.30164 17.2917 6.21448 17.4179C6.13031 17.4246 6.0508 17.4592 5.98858 17.5162C5.92636 17.5733 5.88503 17.6496 5.87115 17.7328C5.85727 17.8161 5.87164 17.9016 5.91199 17.9758C5.95233 18.05 6.01632 18.1085 6.09378 18.1421C7.2031 18.6112 8.39559 18.852 9.60003 18.8499Z" fill="white"/>
</g>
<defs>
<clipPath id="clip0_37_1779">
<rect width="25" height="25" fill="white"/>
</clipPath>
</defs>
</svg>
